<svg width="234" height="117" viewBox="0 0 234 117" fill="none" xmlns="http://www.w3.org/2000/svg">
<path d="M5.376 56V11.968H19.52V56H5.376ZM67.435 56V40.128C67.435 38.1653 67.499 36.16 67.627 34.112C67.7977 32.0213 67.9683 30.272 68.139 28.864C68.3097 27.456 68.4163 26.56 68.459 26.176H68.203L60.075 56H49.003L40.811 26.24H40.555C40.5977 26.624 40.7043 27.52 40.875 28.928C41.0883 30.2933 41.2803 32.0213 41.451 34.112C41.6217 36.16 41.707 38.1653 41.707 40.128V56H28.715V11.968H48.683L55.339 37.376H55.595L62.187 11.968H81.451V56H67.435ZM119.553 56L117.697 49.792H102.273L100.417 56H85.9525L102.017 11.968H118.465L134.529 56H119.553ZM105.217 39.936H114.753L110.145 24.256H109.889L105.217 39.936ZM160.88 11.2C165.104 11.2 168.901 11.84 172.272 13.12C175.643 14.4 178.309 16.2987 180.272 18.816C182.277 21.2907 183.28 24.32 183.28 27.904H169.776C169.776 26.0693 168.965 24.5973 167.344 23.488C165.723 22.336 163.76 21.76 161.456 21.76C158.128 21.76 155.611 22.656 153.904 24.448C152.197 26.1973 151.344 28.6933 151.344 31.936V36.032C151.344 39.2747 152.197 41.792 153.904 43.584C155.611 45.3333 158.128 46.208 161.456 46.208C163.76 46.208 165.723 45.6747 167.344 44.608C168.965 43.4987 169.776 42.0907 169.776 40.384H159.792V31.424H183.28V56H175.984L174.576 51.648C170.565 55.0613 165.317 56.768 158.832 56.768C151.536 56.768 146.053 54.8693 142.384 51.072C138.715 47.232 136.88 41.536 136.88 33.984C136.88 26.5173 138.949 20.864 143.088 17.024C147.269 13.1413 153.2 11.2 160.88 11.2ZM192.049 11.968H230.129V22.528H206.193V28.608H226.673V38.72H206.193V45.44H230.577V56H192.049V11.968Z" fill="white"/>
<path d="M4.96094 70.875H16.2578C18.8203 70.875 20.9844 71.2656 22.75 72.0469C24.5312 72.8281 25.8828 73.9844 26.8047 75.5156C27.7422 77.0312 28.2109 78.8984 28.2109 81.1172C28.2109 82.6797 27.8906 84.1094 27.25 85.4062C26.625 86.6875 25.7188 87.7812 24.5312 88.6875C23.3594 89.5781 21.9531 90.2422 20.3125 90.6797L19.0469 91.1719H8.42969L8.38281 87.4922H16.3984C18.0234 87.4922 19.375 87.2109 20.4531 86.6484C21.5312 86.0703 22.3438 85.2969 22.8906 84.3281C23.4375 83.3594 23.7109 82.2891 23.7109 81.1172C23.7109 79.8047 23.4531 78.6562 22.9375 77.6719C22.4219 76.6875 21.6094 75.9297 20.5 75.3984C19.4062 74.8516 17.9922 74.5781 16.2578 74.5781H9.48438V105H4.96094V70.875ZM24.9062 105L16.6094 89.5312L21.3203 89.5078L29.7344 104.719V105H24.9062ZM63.4188 101.32V105H45.3484V101.32H63.4188ZM46.2625 70.875V105H41.7391V70.875H46.2625ZM61.0281 85.5469V89.2266H45.3484V85.5469H61.0281ZM63.1844 70.875V74.5781H45.3484V70.875H63.1844ZM87.2359 99.8203L97.2906 70.875H102.189L89.5563 105H86.0641L87.2359 99.8203ZM77.8375 70.875L87.7984 99.8203L89.0406 105H85.5484L72.9391 70.875H77.8375ZM118.834 70.875V105H114.311V70.875H118.834ZM145.277 99.8203L155.331 70.875H160.23L147.597 105H144.105L145.277 99.8203ZM135.878 70.875L145.839 99.8203L147.081 105H143.589L130.98 70.875H135.878ZM193.703 101.32V105H175.633V101.32H193.703ZM176.547 70.875V105H172.023V70.875H176.547ZM191.312 85.5469V89.2266H175.633V85.5469H191.312ZM193.469 70.875V74.5781H175.633V70.875H193.469ZM206.505 70.875H217.802C220.364 70.875 222.528 71.2656 224.294 72.0469C226.075 72.8281 227.427 73.9844 228.348 75.5156C229.286 77.0312 229.755 78.8984 229.755 81.1172C229.755 82.6797 229.434 84.1094 228.794 85.4062C228.169 86.6875 227.262 87.7812 226.075 88.6875C224.903 89.5781 223.497 90.2422 221.856 90.6797L220.591 91.1719H209.973L209.927 87.4922H217.942C219.567 87.4922 220.919 87.2109 221.997 86.6484C223.075 86.0703 223.887 85.2969 224.434 84.3281C224.981 83.3594 225.255 82.2891 225.255 81.1172C225.255 79.8047 224.997 78.6562 224.481 77.6719C223.966 76.6875 223.153 75.9297 222.044 75.3984C220.95 74.8516 219.536 74.5781 217.802 74.5781H211.028V105H206.505V70.875ZM226.45 105L218.153 89.5312L222.864 89.5078L231.278 104.719V105H226.45Z" fill="white"/>
</svg>
